<svg xmlns="http://www.w3.org/2000/svg" width="19" height="19" fill="none" viewBox="0 0 19 19"><path fill="#B5B5B5" d="M15.594 0H2.429A2.429 2.429 0 0 0 0 2.429v13.165a2.429 2.429 0 0 0 2.429 2.429h6.493l.01-6.44H7.26a.395.395 0 0 1-.395-.394l-.008-2.076a.394.394 0 0 1 .395-.396h1.67V6.71c0-2.328 1.421-3.596 3.498-3.596h1.704c.218 0 .395.177.395.395v1.75a.395.395 0 0 1-.395.396h-1.046c-1.129 0-1.348.537-1.348 1.324v1.737h2.482c.236 0 .42.206.392.441l-.246 2.076a.395.395 0 0 1-.392.348h-2.224l-.012 6.44h3.864a2.429 2.429 0 0 0 2.429-2.428V2.43A2.429 2.429 0 0 0 15.593 0z"/></svg>