<svg xmlns="http://www.w3.org/2000/svg" width="19" height="19" fill="none" viewBox="0 0 19 19"><path fill="#B5B5B5" d="M9.986 4.388A4.617 4.617 0 0 0 5.362 9.01a4.617 4.617 0 0 0 4.623 4.624 4.617 4.617 0 0 0 4.624-4.624 4.617 4.617 0 0 0-4.623-4.623zm0 7.628A3.011 3.011 0 0 1 6.98 9.011a3.011 3.011 0 0 1 3.005-3.005 3.011 3.011 0 0 1 3.006 3.005 3.011 3.011 0 0 1-3.005 3.005zm4.813-8.895c-.598 0-1.08.482-1.08 1.08 0 .597.482 1.08 1.08 1.08a1.077 1.077 0 0 0 .998-1.494 1.079 1.079 0 0 0-.998-.666zm4.2 5.89c0-1.244.01-2.477-.06-3.72-.07-1.442-.398-2.723-1.453-3.778C16.428.456 15.15.13 13.707.06 12.463-.01 11.23.001 9.987.001 8.744 0 7.51-.011 6.269.059 4.825.13 3.545.46 2.49 1.513 1.433 2.571 1.106 3.85 1.036 5.292.966 6.536.977 7.769.977 9.012c0 1.242-.011 2.477.059 3.72.07 1.442.399 2.722 1.454 3.777 1.057 1.058 2.335 1.385 3.778 1.454 1.245.07 2.478.06 3.72.06 1.244 0 2.477.01 3.72-.06 1.442-.07 2.723-.399 3.778-1.454 1.057-1.057 1.384-2.335 1.454-3.778.072-1.242.058-2.475.058-3.72zm-1.984 5.316a2.89 2.89 0 0 1-.681 1.033 2.886 2.886 0 0 1-1.033.68c-1.186.472-4.001.366-5.316.366-1.314 0-4.132.106-5.317-.363a2.863 2.863 0 0 1-1.033-.681 2.884 2.884 0 0 1-.68-1.033c-.47-1.188-.364-4.003-.364-5.318 0-1.314-.106-4.132.363-5.318.165-.41.363-.717.681-1.032a2.914 2.914 0 0 1 1.033-.681c1.185-.469 4.003-.363 5.317-.363 1.315 0 4.133-.106 5.319.363.41.165.716.363 1.032.68.318.319.516.623.68 1.033.47 1.186.364 4.004.364 5.318 0 1.315.106 4.13-.365 5.316z"/></svg>