<svg xmlns="http://www.w3.org/2000/svg" width="19" height="19" fill="none" viewBox="0 0 19 19"><path fill="#B5B5B5" d="M17.053 0H2.29C1.39 0 .66.73.66 1.63v14.762c0 .9.73 1.63 1.63 1.63h14.762c.901 0 1.63-.73 1.63-1.63V1.63c0-.9-.729-1.63-1.63-1.63zM6.237 15.562a.474.474 0 0 1-.474.475h-2.02a.474.474 0 0 1-.474-.475V7.096c0-.262.212-.474.474-.474h2.02c.262 0 .474.212.474.474v8.466zM4.753 5.824a1.919 1.919 0 1 1 0-3.838 1.919 1.919 0 0 1 0 3.838zM16.79 15.6a.437.437 0 0 1-.436.437h-2.167a.436.436 0 0 1-.436-.437v-3.97c0-.593.174-2.597-1.548-2.597-1.336 0-1.607 1.372-1.661 1.987v4.58a.437.437 0 0 1-.436.437H8.01a.436.436 0 0 1-.437-.437V7.058c0-.241.196-.436.437-.436h2.096c.24 0 .436.195.436.436v.738c.495-.743 1.231-1.317 2.798-1.317 3.47 0 3.45 3.243 3.45 5.024V15.6z"/></svg>