<svg xmlns="http://www.w3.org/2000/svg" id="Layer_1" viewBox="0 0 512 512"><style>.st0{fill:#fff}.st1{fill:#1fbaed}</style><path d="M116 77.7c-15.8-21.3-46.7-24.6-66.9-6.4-17.4 16-18.8 43.1-4.7 62.2l91 121.9-91.5 123c-14.1 19.1-13 46.2 4.7 62.2 20.2 18.3 51.2 14.9 66.9-6.4l127.7-171.7c3-4.1 3-9.9 0-14.1L116 77.7z" class="st0"/><path d="M396.4 77.7c15.8-21.3 46.7-24.6 66.9-6.4 17.4 16 18.8 43.1 4.7 62.2l-91 121.9 91.5 123c14.1 19.1 13 46.2-4.7 62.2-20.2 18.3-51.1 14.9-66.9-6.4l-127.5-172c-3-4.1-3-9.9 0-14.1l127-170.4z" class="st1"/></svg>