<svg xmlns="http://www.w3.org/2000/svg" width="20" height="21" fill="none" viewBox="0 0 20 21"><path fill="#777" d="M19.696 19.128l-4.93-5.198a8.522 8.522 0 0 0 1.962-5.451C16.728 3.804 12.976 0 8.364 0 3.752 0 0 3.804 0 8.479c0 4.675 3.752 8.479 8.364 8.479a8.2 8.2 0 0 0 4.792-1.535l4.967 5.238a1.079 1.079 0 0 0 1.543.03 1.118 1.118 0 0 0 .03-1.563zM8.364 2.212c3.409 0 6.182 2.811 6.182 6.267 0 3.455-2.773 6.267-6.182 6.267-3.409 0-6.182-2.812-6.182-6.267 0-3.456 2.773-6.267 6.182-6.267z"/></svg>