<svg xmlns="http://www.w3.org/2000/svg" width="19" height="16" fill="none" viewBox="0 0 19 16"><path fill="#B5B5B5" d="M18.358 2.161a7.26 7.26 0 0 1-1.264.426A3.942 3.942 0 0 0 18.134.93a.207.207 0 0 0-.302-.24 7.295 7.295 0 0 1-1.932.798.513.513 0 0 1-.46-.114 3.952 3.952 0 0 0-2.615-.987c-.417 0-.838.065-1.252.193a3.83 3.83 0 0 0-2.58 2.76 4.179 4.179 0 0 0-.094 1.455.147.147 0 0 1-.159.16 10.364 10.364 0 0 1-7.123-3.806.207.207 0 0 0-.34.026 3.95 3.95 0 0 0-.534 1.987c0 1.072.43 2.082 1.178 2.818a3.542 3.542 0 0 1-.902-.35.207.207 0 0 0-.307.179 3.957 3.957 0 0 0 2.309 3.646 3.489 3.489 0 0 1-.75-.063.207.207 0 0 0-.236.266 3.961 3.961 0 0 0 3.129 2.695 7.294 7.294 0 0 1-4.085 1.24H.622a.303.303 0 0 0-.296.228.313.313 0 0 0 .15.346 10.849 10.849 0 0 0 5.451 1.47c1.676 0 3.243-.333 4.659-.988a10.287 10.287 0 0 0 3.408-2.554 11.197 11.197 0 0 0 2.087-3.496c.464-1.24.71-2.563.71-3.826v-.06a.67.67 0 0 1 .251-.523 7.813 7.813 0 0 0 1.572-1.725c.115-.172-.067-.388-.256-.304z"/></svg>