<svg xmlns="http://www.w3.org/2000/svg" width="19" height="13" fill="none" viewBox="0 0 19 13"><path fill="#F00" d="M18.613 2.044a2.314 2.314 0 0 0-.612-1.037 2.392 2.392 0 0 0-1.06-.602C15.454.007 9.507 0 9.507 0S3.56-.006 2.072.375c-.4.111-.765.322-1.059.61a2.364 2.364 0 0 0-.617 1.04C.004 3.476 0 6.49 0 6.49s-.004 3.028.385 4.466c.219.795.86 1.423 1.674 1.638 1.502.398 7.433.405 7.433.405s5.948.007 7.434-.374a2.4 2.4 0 0 0 1.062-.6c.294-.287.506-.644.616-1.036.393-1.452.396-4.464.396-4.464s.019-3.03-.387-4.482zM7.604 9.282l.005-5.566 4.943 2.788-4.948 2.778z"/></svg>